<svg xmlns="http://www.w3.org/2000/svg" width="128" height="128" viewBox="0 0 128 128" fill="none">
  <defs>
    <linearGradient id="bg" x1="16" y1="10" x2="112" y2="118" gradientUnits="userSpaceOnUse">
      <stop offset="0" stop-color="#F7FAFF"/>
      <stop offset="1" stop-color="#EAF2FF"/>
    </linearGradient>
    <linearGradient id="green" x1="28" y1="34" x2="64" y2="92" gradientUnits="userSpaceOnUse">
      <stop offset="0" stop-color="#94FF2E"/>
      <stop offset="1" stop-color="#7BF202"/>
    </linearGradient>
    <linearGradient id="blue" x1="60" y1="26" x2="94" y2="92" gradientUnits="userSpaceOnUse">
      <stop offset="0" stop-color="#6BA8FF"/>
      <stop offset="1" stop-color="#2E7AE8"/>
    </linearGradient>
    <filter id="shadow" x="0" y="0" width="128" height="128" filterUnits="userSpaceOnUse" color-interpolation-filters="sRGB">
      <feDropShadow dx="0" dy="6" stdDeviation="8" flood-color="#B9C9E9" flood-opacity="0.35"/>
    </filter>
  </defs>

  <g filter="url(#shadow)">
    <rect x="12" y="12" width="104" height="104" rx="30" fill="url(#bg)"/>
    <rect x="12.75" y="12.75" width="102.5" height="102.5" rx="29.25" stroke="#D6E2F5" stroke-width="1.5"/>
  </g>

  <text x="27" y="82"
        font-family="Arial Black, Arial, Helvetica, sans-serif"
        font-size="58"
        font-style="italic"
        font-weight="900"
        letter-spacing="-4"
        fill="url(#green)">B</text>

  <text x="58" y="81"
        font-family="Arial Black, Arial, Helvetica, sans-serif"
        font-size="60"
        font-style="italic"
        font-weight="900"
        letter-spacing="-2"
        fill="url(#blue)">T</text>

  <g transform="translate(79 28)" stroke="#4A8EF2" stroke-width="3.5" stroke-linecap="round" stroke-linejoin="round" fill="none" opacity="0.95">
    <polygon points="8,0 16,4.6 16,13.8 8,18.4 0,13.8 0,4.6"/>
    <line x1="16" y1="4.6" x2="24" y2="2.5"/>
    <circle cx="24" cy="2.5" r="2.8" fill="#4A8EF2" stroke="none"/>
    <line x1="0" y1="13.8" x2="-6" y2="18"/>
    <circle cx="-6" cy="18" r="2.8" fill="#7BF202" stroke="none"/>
  </g>
</svg>
