<svg width="24" height="24" viewBox="0 0 24 24" fill="none" xmlns="http://www.w3.org/2000/svg">
<path d="M11.0239 3.2885L11.0229 3.28945L5.74525 8.78199C5.34988 9.19347 5.35136 9.85901 5.7487 10.2686C6.146 10.6781 6.78861 10.6766 7.18403 10.2651L10.7274 6.57738L10.7274 18.2423C10.7274 18.8229 11.1818 19.2935 11.7423 19.2935C12.3029 19.2935 12.7573 18.8229 12.7573 18.2423L12.7573 6.57744L16.3006 10.265C16.6961 10.6765 17.3387 10.6781 17.736 10.2685C18.1334 9.85896 18.1347 9.19336 17.7394 8.78194L12.4617 3.28939L12.4608 3.28845C12.064 2.87676 11.4193 2.87807 11.0239 3.2885Z" fill="white"/>
</svg>
