<svg width="13" height="10" viewBox="0 0 13 10" fill="none" xmlns="http://www.w3.org/2000/svg">
<path d="M12.2085 4.25199L12.2078 4.25125L8.01812 0.225443C7.70424 -0.0761445 7.19657 -0.0750222 6.88414 0.228075C6.57174 0.531133 6.57295 1.02131 6.88682 1.32294L9.69979 4.02581H0.801825C0.358977 4.02581 0 4.37241 0 4.8C0 5.22759 0.358977 5.57419 0.801825 5.57419H9.69975L6.88686 8.27706C6.57299 8.57869 6.57178 9.06887 6.88418 9.37192C7.19661 9.67506 7.70432 9.67611 8.01816 9.37456L12.2079 5.34875L12.2086 5.34801C12.5226 5.04538 12.5216 4.55361 12.2085 4.25199Z" fill="black"/>
</svg>
