<svg width="13" height="10" viewBox="0 0 13 10" fill="none" xmlns="http://www.w3.org/2000/svg">
<path d="M0.234824 4.25199L0.235546 4.25125L4.42524 0.225443C4.73912 -0.0761445 5.24679 -0.0750222 5.55922 0.228075C5.87161 0.531133 5.87041 1.02131 5.55654 1.32294L2.74357 4.02581H11.6415C12.0844 4.02581 12.4434 4.37241 12.4434 4.8C12.4434 5.22759 12.0844 5.57419 11.6415 5.57419H2.74361L5.5565 8.27706C5.87037 8.57869 5.87157 9.06887 5.55918 9.37192C5.24675 9.67506 4.73904 9.67611 4.4252 9.37456L0.235505 5.34875L0.234783 5.34801C-0.0792513 5.04538 -0.078249 4.55361 0.234824 4.25199Z" fill="#FF7905"/>
</svg>
