<svg width="28" height="20" viewBox="0 0 28 20" fill="none" xmlns="http://www.w3.org/2000/svg">
  <path d="M27.4185 5.57888C27.1112 4.39858 26.1844 3.4698 25.0065 3.1618C22.8729 2.58801 14.3096 2.58801 14.3096 2.58801C14.3096 2.58801 5.74628 2.60561 3.61269 3.1794C2.43479 3.4874 1.508 4.41618 1.20068 5.59648C0.630859 7.73447 0.630859 10.2085 0.630859 10.2085C0.630859 10.2085 0.630859 12.7002 1.20068 14.8206C1.508 16.0009 2.41723 16.9121 3.61269 17.2377C5.74628 17.8115 14.3096 17.8115 14.3096 17.8115C14.3096 17.8115 22.8729 17.8115 25.0065 17.2377C26.1844 16.9297 27.1112 16.0009 27.4185 14.8206C27.9884 12.6826 27.9884 10.2085 27.9884 10.2085C27.9884 10.2085 28.006 7.71687 27.4185 5.57888Z" fill="url(#paint0_linear_101_2)"/>
  <path d="M11.5791 13.6512L18.6932 10.2089L11.5791 6.7666V13.6512Z" fill="white"/>
  <defs>
    <linearGradient id="paint0_linear_101_2" x1="2.42485" y1="3.74829" x2="24.6819" y2="19.0533" gradientUnits="userSpaceOnUse">
      <stop stop-color="#4F92FF"/>
      <stop offset="1" stop-color="#1D63D8"/>
    </linearGradient>
  </defs>
</svg>
